<?xml version="1.0" encoding="utf-8"?>
<!-- Generator: Adobe Illustrator 22.0.0, SVG Export Plug-In . SVG Version: 6.00 Build 0)  -->
<svg version="1.1" id="Laag_1" xmlns="http://www.w3.org/2000/svg" xmlns:xlink="http://www.w3.org/1999/xlink" x="0px" y="0px"
	 viewBox="0 0 37.9 37.2" style="enable-background:new 0 0 37.9 37.2;" xml:space="preserve">
<style type="text/css">
	.st0{fill:#FFFFFF;}
</style>
<g>
	<path class="st0" d="M18.8,35.3c9.4,0,17-7.6,17-17c0-9.4-7.6-17-17-17c-9.4,0-17,7.6-17,17C1.8,27.7,9.4,35.3,18.8,35.3"/>
</g>
<g>
	<path d="M27.1,15.7c-1.8,1.3-3.6,2.5-5.4,3.8c-0.8,0.5-2,1.6-3,1.6h0h0c-0.9,0-2.2-1.1-3-1.6c-1.8-1.3-3.6-2.5-5.4-3.8
		c-0.8-0.6-2-1.9-2-2.9c0-1.1,0.6-2.1,1.9-2.1h17.1c1,0,1.9,0.8,1.9,1.9C29.1,13.9,28.2,15,27.1,15.7z M29.1,25.2
		c0,1-0.8,1.9-1.9,1.9H10.2c-1,0-1.9-0.8-1.9-1.9V16c0.3,0.4,0.7,0.7,1.2,1c1.9,1.3,3.9,2.6,5.8,4c1,0.7,2.2,1.6,3.4,1.6h0h0
		c1.3,0,2.5-0.9,3.4-1.6c1.9-1.4,3.8-2.7,5.8-4c0.4-0.3,0.8-0.6,1.2-1V25.2z"/>
</g>
</svg>
