<?xml version="1.0" encoding="utf-8"?>
<!-- Generator: Adobe Illustrator 22.0.0, SVG Export Plug-In . SVG Version: 6.00 Build 0)  -->
<svg version="1.1" id="Laag_1" xmlns="http://www.w3.org/2000/svg" xmlns:xlink="http://www.w3.org/1999/xlink" x="0px" y="0px"
	 viewBox="0 0 37.9 37.2" style="enable-background:new 0 0 37.9 37.2;" xml:space="preserve">
<style type="text/css">
	.st0{fill:#507CBD;}
	.st1{fill:#FFFFFF;}
</style>
<g>
	<path class="st0" d="M18.9,35.5c9.4,0,17-7.6,17-17c0-9.4-7.6-17-17-17c-9.4,0-17,7.6-17,17C1.9,27.8,9.5,35.5,18.9,35.5"/>
	<path class="st1" d="M14.8,15.6h1.8v-1.7c0-0.8,0-1.9,0.6-2.6c0.6-0.8,1.4-1.3,2.7-1.3c2.2,0,3.2,0.3,3.2,0.3l-0.4,2.6
		c0,0-0.7-0.2-1.4-0.2c-0.7,0-1.3,0.2-1.3,0.9v2h2.8l-0.2,2.5h-2.6V27h-3.3v-8.8h-1.8V15.6z"/>
</g>
</svg>
