<?xml version="1.0" encoding="utf-8"?>
<!-- Generator: Adobe Illustrator 22.0.0, SVG Export Plug-In . SVG Version: 6.00 Build 0)  -->
<svg version="1.1" id="Laag_1" xmlns="http://www.w3.org/2000/svg" xmlns:xlink="http://www.w3.org/1999/xlink" x="0px" y="0px"
	 viewBox="0 0 37.9 37.2" style="enable-background:new 0 0 37.9 37.2;" xml:space="preserve">
<style type="text/css">
	.st0{fill:#FF8A95;}
	.st1{fill:#FFFFFF;}
</style>
<g>
	<path class="st0" d="M18.8,35.3c9.4,0,17-7.6,17-17c0-9.4-7.6-17-17-17c-9.4,0-17,7.6-17,17C1.8,27.7,9.4,35.3,18.8,35.3"/>
</g>
<path class="st1" d="M24,10.2H13.6c-1.8,0-3.3,1.5-3.3,3.3V17v7c0,1.8,1.5,3.3,3.3,3.3H24c1.8,0,3.3-1.5,3.3-3.3v-7v-3.5
	C27.3,11.7,25.8,10.2,24,10.2z M24.9,12.2l0.4,0v0.4v2.5l-2.9,0l0-2.9L24.9,12.2z M16.4,17c0.5-0.8,1.4-1.2,2.4-1.2
	c1,0,1.9,0.5,2.4,1.2c0.4,0.5,0.6,1.1,0.6,1.7c0,1.7-1.3,3-3,3c-1.7,0-3-1.3-3-3C15.8,18.1,16,17.5,16.4,17z M25.6,23.9
	c0,0.9-0.7,1.6-1.6,1.6H13.6c-0.9,0-1.6-0.7-1.6-1.6v-7h2.5c-0.2,0.5-0.3,1.1-0.3,1.7c0,2.6,2.1,4.7,4.7,4.7c2.6,0,4.7-2.1,4.7-4.7
	c0-0.6-0.1-1.2-0.3-1.7h2.5V23.9z"/>
</svg>
