<?xml version="1.0" encoding="utf-8"?>
<!-- Generator: Adobe Illustrator 22.0.0, SVG Export Plug-In . SVG Version: 6.00 Build 0)  -->
<svg version="1.1" id="Laag_1" xmlns="http://www.w3.org/2000/svg" xmlns:xlink="http://www.w3.org/1999/xlink" x="0px" y="0px"
	 viewBox="0 0 37.9 37.2" style="enable-background:new 0 0 37.9 37.2;" xml:space="preserve">
<style type="text/css">
	.st0{fill:#1186C8;}
	.st1{fill:#FFFFFF;}
</style>
<g>
	<path class="st0" d="M18.8,35.3c9.4,0,17-7.6,17-17c0-9.4-7.6-17-17-17c-9.4,0-17,7.6-17,17C1.8,27.7,9.4,35.3,18.8,35.3"/>
	<path class="st1" d="M14.5,25.4h-3.3V14.8h3.3V25.4z M12.8,13.5L12.8,13.5c-1.2,0-2-0.8-2-1.8c0-1,0.8-1.8,2-1.8c1.2,0,2,0.8,2,1.8
		C14.8,12.7,14,13.5,12.8,13.5z M27.8,25.4H24v-5.5c0-1.4-0.6-2.4-1.9-2.4c-1,0-1.5,0.7-1.8,1.3c-0.1,0.2-0.1,0.5-0.1,0.9v5.7h-3.7
		c0,0,0-9.7,0-10.6h3.7v1.7c0.2-0.7,1.4-1.8,3.3-1.8c2.4,0,4.2,1.5,4.2,4.8V25.4z"/>
</g>
</svg>
